<mxfile host="app.diagrams.net" agent="Mozilla/5.0 (Macintosh; Intel Mac OS X 10_15_7) AppleWebKit/537.36 (KHTML, like Gecko) Chrome/139.0.0.0 Safari/537.36" version="28.2.0">
  <diagram name="Page-1" id="iTVzrAQluBWMgvImate6">
    <mxGraphModel dx="2963" dy="1615" grid="1" gridSize="10" guides="1" tooltips="1" connect="1" arrows="1" fold="1" page="1" pageScale="1" pageWidth="827" pageHeight="1169" math="0" shadow="0">
      <root>
        <mxCell id="0" />
        <mxCell id="1" parent="0" />
        <mxCell id="Cm8HBesDmXAJ4r1UtF1I-2" value="" style="ellipse;whiteSpace=wrap;html=1;aspect=fixed;fillColor=light-dark(#FFFFFF,#CC99FF);" vertex="1" parent="1">
          <mxGeometry x="250" y="220" width="1330" height="1330" as="geometry" />
        </mxCell>
        <mxCell id="Cm8HBesDmXAJ4r1UtF1I-10" value="" style="ellipse;whiteSpace=wrap;html=1;fillColor=light-dark(#FFFFFF,#CCE5FF);" vertex="1" parent="1">
          <mxGeometry x="470" y="420" width="880" height="880" as="geometry" />
        </mxCell>
        <mxCell id="Cm8HBesDmXAJ4r1UtF1I-25" value="" style="shape=step;perimeter=stepPerimeter;whiteSpace=wrap;html=1;fixedSize=1;direction=east;fillColor=light-dark(#FFFFFF,#6666FF);" vertex="1" parent="1">
          <mxGeometry x="720" y="190" width="80" height="300" as="geometry" />
        </mxCell>
        <mxCell id="Cm8HBesDmXAJ4r1UtF1I-26" value="" style="shape=step;perimeter=stepPerimeter;whiteSpace=wrap;html=1;fixedSize=1;direction=east;fillColor=light-dark(#FFFFFF,#6666FF);" vertex="1" parent="1">
          <mxGeometry x="1150" y="240" width="80" height="300" as="geometry" />
        </mxCell>
        <mxCell id="Cm8HBesDmXAJ4r1UtF1I-27" value="" style="shape=step;perimeter=stepPerimeter;whiteSpace=wrap;html=1;fixedSize=1;direction=south;fillColor=light-dark(#FFFFFF,#6666FF);strokeColor=light-dark(#000000,#6666FF);" vertex="1" parent="1">
          <mxGeometry x="1280" y="680" width="300" height="80" as="geometry" />
        </mxCell>
        <mxCell id="Cm8HBesDmXAJ4r1UtF1I-28" value="" style="shape=step;perimeter=stepPerimeter;whiteSpace=wrap;html=1;fixedSize=1;direction=south;fillColor=light-dark(#FFFFFF,#6666FF);" vertex="1" parent="1">
          <mxGeometry x="1250" y="1089" width="300" height="80" as="geometry" />
        </mxCell>
        <mxCell id="Cm8HBesDmXAJ4r1UtF1I-30" value="" style="shape=step;perimeter=stepPerimeter;whiteSpace=wrap;html=1;fixedSize=1;direction=west;fillColor=light-dark(#FFFFFF,#6666FF);" vertex="1" parent="1">
          <mxGeometry x="1050" y="1200" width="80" height="360" as="geometry" />
        </mxCell>
        <mxCell id="Cm8HBesDmXAJ4r1UtF1I-31" value="" style="shape=step;perimeter=stepPerimeter;whiteSpace=wrap;html=1;fixedSize=1;direction=west;fillColor=light-dark(#FFFFFF,#6666FF);" vertex="1" parent="1">
          <mxGeometry x="620" y="1180" width="80" height="370" as="geometry" />
        </mxCell>
        <mxCell id="Cm8HBesDmXAJ4r1UtF1I-32" value="" style="shape=step;perimeter=stepPerimeter;whiteSpace=wrap;html=1;fixedSize=1;direction=north;fillColor=light-dark(#FFFFFF,#6666FF);" vertex="1" parent="1">
          <mxGeometry x="240" y="990" width="330" height="80" as="geometry" />
        </mxCell>
        <mxCell id="Cm8HBesDmXAJ4r1UtF1I-34" value="" style="shape=step;perimeter=stepPerimeter;whiteSpace=wrap;html=1;fixedSize=1;direction=north;fillColor=light-dark(#FFFFFF,#6666FF);" vertex="1" parent="1">
          <mxGeometry x="270" y="580" width="330" height="80" as="geometry" />
        </mxCell>
        <mxCell id="Cm8HBesDmXAJ4r1UtF1I-35" style="edgeStyle=orthogonalEdgeStyle;rounded=0;orthogonalLoop=1;jettySize=auto;html=1;exitX=0.25;exitY=1;exitDx=0;exitDy=0;entryX=0.809;entryY=0.111;entryDx=0;entryDy=0;entryPerimeter=0;" edge="1" parent="1" source="Cm8HBesDmXAJ4r1UtF1I-26" target="Cm8HBesDmXAJ4r1UtF1I-10">
          <mxGeometry relative="1" as="geometry" />
        </mxCell>
        <mxCell id="Cm8HBesDmXAJ4r1UtF1I-36" value="&lt;div&gt;&lt;font style=&quot;font-size: 100px; color: light-dark(rgb(0, 0, 0), rgb(0, 0, 51));&quot;&gt;&lt;b style=&quot;&quot;&gt;Life Cycle&lt;/b&gt;&lt;/font&gt;&lt;/div&gt;" style="text;html=1;align=center;verticalAlign=middle;resizable=0;points=[];autosize=1;strokeColor=light-dark(transparent,#66FFFF);fillColor=none;" vertex="1" parent="1">
          <mxGeometry x="690" y="840" width="500" height="130" as="geometry" />
        </mxCell>
        <mxCell id="Cm8HBesDmXAJ4r1UtF1I-41" value="&lt;b&gt;&lt;font style=&quot;font-size: 48px; color: light-dark(rgb(0, 0, 0), rgb(0, 0, 51));&quot;&gt;Plan&lt;/font&gt;&lt;/b&gt;" style="text;html=1;align=center;verticalAlign=middle;resizable=0;points=[];autosize=1;strokeColor=none;fillColor=none;" vertex="1" parent="1">
          <mxGeometry x="455" y="430" width="120" height="70" as="geometry" />
        </mxCell>
        <mxCell id="Cm8HBesDmXAJ4r1UtF1I-42" value="&lt;font style=&quot;font-size: 48px; color: light-dark(rgb(0, 0, 0), rgb(0, 0, 51));&quot;&gt;&lt;b&gt;Develop&lt;/b&gt;&lt;/font&gt;" style="text;html=1;align=center;verticalAlign=middle;resizable=0;points=[];autosize=1;strokeColor=none;fillColor=none;" vertex="1" parent="1">
          <mxGeometry x="850" y="305" width="210" height="70" as="geometry" />
        </mxCell>
        <mxCell id="Cm8HBesDmXAJ4r1UtF1I-44" value="&lt;b&gt;&lt;font style=&quot;font-size: 48px; color: light-dark(rgb(0, 0, 0), rgb(0, 0, 51));&quot;&gt;Build&lt;/font&gt;&lt;/b&gt;" style="text;html=1;align=center;verticalAlign=middle;resizable=0;points=[];autosize=1;strokeColor=none;fillColor=none;" vertex="1" parent="1">
          <mxGeometry x="1265" y="490" width="140" height="70" as="geometry" />
        </mxCell>
        <mxCell id="Cm8HBesDmXAJ4r1UtF1I-45" value="&lt;b&gt;&lt;font style=&quot;font-size: 48px; color: light-dark(rgb(0, 0, 0), rgb(0, 0, 51));&quot;&gt;Test&lt;/font&gt;&lt;/b&gt;" style="text;html=1;align=center;verticalAlign=middle;resizable=0;points=[];autosize=1;strokeColor=none;fillColor=none;" vertex="1" parent="1">
          <mxGeometry x="1415" y="880" width="120" height="70" as="geometry" />
        </mxCell>
        <mxCell id="Cm8HBesDmXAJ4r1UtF1I-46" value="&lt;b&gt;&lt;font style=&quot;font-size: 48px; color: light-dark(rgb(0, 0, 0), rgb(0, 0, 51));&quot;&gt;Release&lt;/font&gt;&lt;/b&gt;" style="text;html=1;align=center;verticalAlign=middle;resizable=0;points=[];autosize=1;strokeColor=none;fillColor=none;" vertex="1" parent="1">
          <mxGeometry x="1165" y="1250" width="200" height="70" as="geometry" />
        </mxCell>
        <mxCell id="Cm8HBesDmXAJ4r1UtF1I-48" value="&lt;b&gt;&lt;font style=&quot;font-size: 48px; color: light-dark(rgb(0, 0, 0), rgb(0, 0, 51));&quot;&gt;Deploy&lt;/font&gt;&lt;/b&gt;" style="text;html=1;align=center;verticalAlign=middle;resizable=0;points=[];autosize=1;strokeColor=none;fillColor=none;" vertex="1" parent="1">
          <mxGeometry x="790" y="1390" width="180" height="70" as="geometry" />
        </mxCell>
        <mxCell id="Cm8HBesDmXAJ4r1UtF1I-49" value="&lt;b&gt;&lt;font style=&quot;font-size: 48px; color: light-dark(rgb(0, 0, 0), rgb(0, 0, 51));&quot;&gt;Operate&lt;/font&gt;&lt;/b&gt;" style="text;html=1;align=center;verticalAlign=middle;resizable=0;points=[];autosize=1;strokeColor=none;fillColor=none;" vertex="1" parent="1">
          <mxGeometry x="385" y="1190" width="200" height="70" as="geometry" />
        </mxCell>
        <mxCell id="Cm8HBesDmXAJ4r1UtF1I-50" value="&lt;b&gt;&lt;font style=&quot;font-size: 48px; color: light-dark(rgb(0, 0, 0), rgb(0, 0, 51));&quot;&gt;Monitor&lt;/font&gt;&lt;/b&gt;" style="text;html=1;align=center;verticalAlign=middle;resizable=0;points=[];autosize=1;strokeColor=none;fillColor=none;" vertex="1" parent="1">
          <mxGeometry x="270" y="790" width="200" height="70" as="geometry" />
        </mxCell>
        <mxCell id="Cm8HBesDmXAJ4r1UtF1I-54" value="&lt;b&gt;&lt;font style=&quot;font-size: 88px; color: light-dark(rgb(0, 0, 0), rgb(0, 0, 51));&quot;&gt;DevOps&lt;/font&gt;&lt;/b&gt;" style="text;html=1;align=center;verticalAlign=middle;resizable=0;points=[];autosize=1;strokeColor=light-dark(#000000,#000033);fillColor=none;" vertex="1" parent="1">
          <mxGeometry x="750" y="650" width="360" height="120" as="geometry" />
        </mxCell>
      </root>
    </mxGraphModel>
  </diagram>
</mxfile>
